<svg xmlns="http://www.w3.org/2000/svg" viewBox="0 0 32 32">
  <!-- doughnut body (warm tan, ring shape via even-odd fill) -->
  <path fill="#c89060" fill-rule="evenodd" d="M16 3a13 13 0 1 1 0 26 a13 13 0 1 1 0-26zm0 8a5 5 0 1 0 0 10 a5 5 0 1 0 0-10z"/>
  <!-- teal glaze drip on upper half (ring shape, slightly inset) -->
  <path fill="#2dd4bf" fill-rule="evenodd" d="M16 3a13 13 0 0 1 13 13c0 .8-.07 1.6-.2 2.4-3 1.2-6.3-1-9.6-1.8-3.3-.7-6.7-.5-9.5 1.2-3 1.6-5.8 1.4-9.5.6-.13-.8-.2-1.6-.2-2.4 A13 13 0 0 1 16 3zm0 8a5 5 0 0 0-5 5c0 .5.07 1 .2 1.5 1-.4 2.5-.5 4.8-.5 2.3 0 3.8.1 4.8.5 .13-.5.2-1 .2-1.5 a5 5 0 0 0-5-5z"/>
  <!-- sprinkles -->
  <rect x="7" y="9" width="2.2" height="0.9" rx="0.4" fill="#f43f5e" transform="rotate(25 8 9.5)"/>
  <rect x="21.5" y="8.5" width="2.2" height="0.9" rx="0.4" fill="#fbbf24" transform="rotate(-15 22.5 9)"/>
  <rect x="14.5" y="7" width="2" height="0.9" rx="0.4" fill="#ffffff" transform="rotate(8 15.5 7.5)"/>
  <rect x="24.5" y="13" width="2" height="0.9" rx="0.4" fill="#f43f5e" transform="rotate(60 25.5 13.5)"/>
  <rect x="5" y="14" width="2" height="0.9" rx="0.4" fill="#ffffff" transform="rotate(-50 6 14.5)"/>
</svg>
